<svg width="16" height="16" viewBox="0 0 16 16" fill="none" xmlns="http://www.w3.org/2000/svg">
<g clip-path="url(#clip0_1630_3182)">
<path d="M8.00065 1.33325C11.6827 1.33325 14.6673 4.31792 14.6673 7.99992C14.6673 11.6819 11.6827 14.6666 8.00065 14.6666C4.31865 14.6666 1.33398 11.6819 1.33398 7.99992C1.33398 4.31792 4.31865 1.33325 8.00065 1.33325ZM8.00065 3.99992C7.82384 3.99992 7.65427 4.07016 7.52925 4.19518C7.40422 4.3202 7.33398 4.48977 7.33398 4.66658V7.99992C7.33402 8.17671 7.40428 8.34626 7.52932 8.47125L9.52932 10.4713C9.65505 10.5927 9.82345 10.6599 9.99825 10.6584C10.173 10.6568 10.3403 10.5867 10.4639 10.4631C10.5875 10.3395 10.6576 10.1723 10.6591 9.99752C10.6606 9.82272 10.5934 9.65432 10.472 9.52858L8.66732 7.72392V4.66658C8.66732 4.48977 8.59708 4.3202 8.47205 4.19518C8.34703 4.07016 8.17746 3.99992 8.00065 3.99992Z" fill="white"/>
</g>
<defs>
<clipPath id="clip0_1630_3182">
<rect width="16" height="16" fill="white"/>
</clipPath>
</defs>
</svg>
