<svg width="153" height="32" viewBox="0 0 153 32" fill="none" xmlns="http://www.w3.org/2000/svg">
<path d="M16.2737 31.3312C10.7956 31.3814 5.46849 31.3814 0.00805305 31.3814C0.00805305 27.0752 0.00805305 22.6966 0.00805305 18.1681C2.53975 18.1681 5.10429 18.1681 7.86055 18.1681C7.86055 20.4308 7.86055 22.6934 7.86055 25.1971C10.282 25.0808 12.5616 25.2472 14.7216 24.8054C18.2951 24.0746 20.223 20.8225 19.8037 16.8838C19.4028 13.1189 16.8014 10.6093 12.9071 10.4795C9.29433 10.3592 5.67512 10.4395 2.05874 10.432C1.4117 10.4306 0.764657 10.4318 0 10.4318C0 8.31328 0 6.29142 0 4.15509C0.390045 4.10656 0.783925 4.00816 1.17568 4.01628C6.25682 4.12154 11.3731 3.90308 16.4089 4.45129C21.7278 5.03032 25.6454 8.10586 27.114 13.5447C28.5301 18.789 27.8224 23.7221 23.8014 27.7233C21.7547 29.7599 19.1733 30.7195 16.2737 31.3312Z" fill="url(#paint0_linear_1923_1215)"/>
<path d="M112.243 31.5729C110.351 31.5729 108.634 31.5729 106.634 31.5729C106.634 29.8986 106.634 28.2959 106.634 26.6931C106.633 24.6362 106.669 22.5784 106.622 20.5226C106.561 17.8162 105.276 16.235 103.268 16.2886C100.981 16.3496 99.4196 18.1461 99.408 20.774C99.3952 23.6778 99.4126 26.5816 99.4165 29.4854C99.4173 30.0843 99.4166 30.6831 99.4166 31.4288C96.9413 31.4288 94.5478 31.4288 92.0072 31.4288C92.0072 24.515 92.0072 17.5383 92.0072 10.4352C94.2404 10.4352 96.5218 10.4352 98.9226 10.4352C98.9917 10.8988 99.0654 11.3924 99.1657 12.0651C102.17 9.93588 105.348 9.45382 108.685 10.4702C112.026 11.4876 113.784 14.0511 113.959 17.4161C114.201 22.0521 114.02 26.7111 114.02 31.4948C113.433 31.5234 112.925 31.5481 112.243 31.5729Z" fill="url(#paint1_linear_1923_1215)"/>
<path d="M41.8012 23.0631C40.3898 23.0632 39.1552 23.0632 37.8868 23.0632C38.8738 26.5013 42.7471 26.9867 46.9836 24.4217C48.3237 25.8009 49.6364 27.1518 51.0188 28.5745C49.5965 30.311 47.6809 31.2174 45.4687 31.5998C41.5236 32.2816 37.6921 32.1108 34.2897 29.6945C27.6894 25.0073 28.6647 14.6164 35.9925 11.1406C42.6618 7.97719 50.398 11.0474 52.1646 17.6743C52.6025 19.317 52.5073 21.1076 52.6774 23.0631C48.916 23.0631 45.4469 23.0631 41.8012 23.0631ZM42.6518 18.8266C43.5541 18.8266 44.4564 18.8266 45.4298 18.8266C44.6462 16.3171 43.3451 15.3035 41.2658 15.3665C39.2761 15.4267 38.0275 16.5504 37.5431 18.8266C39.1485 18.8266 40.7276 18.8266 42.6518 18.8266Z" fill="url(#paint2_linear_1923_1215)"/>
<path d="M63.8356 23.5522C63.8356 26.2602 63.8356 28.7882 63.8356 31.4488C61.2471 31.4488 58.7512 31.4488 56.1586 31.4488C56.1586 26.3581 56.1586 21.3087 56.1586 16.1263C62.8509 16.1263 69.5605 16.1263 76.3811 16.1263C76.3811 18.1451 76.3811 20.1627 76.3811 22.3412C72.5794 22.3412 68.8663 22.3469 65.1533 22.3363C64.4282 22.3342 63.6495 22.1973 63.8356 23.5522Z" fill="url(#paint3_linear_1923_1215)"/>
<path d="M87.4172 10.2855C87.4172 10.6404 87.4166 10.9238 87.4172 11.1936C87.4319 17.8908 87.4287 24.5881 87.4287 31.4317C84.9833 31.4317 82.5877 31.4317 80.0554 31.4317C80.0554 24.4868 80.0554 17.4733 80.0554 10.3204C82.3333 10.3204 85.0058 10.2533 87.4172 10.2855Z" fill="url(#paint4_linear_1923_1215)"/>
<path d="M60.6657 10.2585C59.0746 10.2591 57.6603 10.2591 56.1573 10.2591C56.1573 8.14802 56.1573 6.1852 56.1573 4.11833C62.8616 4.11833 69.5395 4.11833 76.3538 4.11833C76.3538 6.05277 76.3538 8.0174 76.3538 10.258C71.2213 10.258 66.0318 10.258 60.6657 10.2585Z" fill="url(#paint5_linear_1923_1215)"/>
<path d="M144.61 25.0108C145.874 23.3392 147.427 22.6333 149.334 22.9939C152.194 23.5348 153.496 25.7339 152.828 28.7555C152.31 31.0995 149.604 32.5372 147.078 31.8106C144.869 31.1752 143.474 28.1878 144.271 25.7941C144.347 25.5669 144.443 25.347 144.61 25.0108Z" fill="url(#paint6_linear_1923_1215)"/>
<path d="M88.0267 5.30145C87.2162 8.17998 83.2212 8.9755 80.7689 7.30359C79.4189 6.38316 78.7935 4.46544 79.3055 2.81582C79.7783 1.29266 81.4244 0.016573 82.9368 0.000846986C85.7107 -0.0279969 87.4321 0.67456 88.0524 2.92268C88.2991 3.81697 88.2782 4.40852 88.0267 5.30145Z" fill="url(#paint7_linear_1923_1215)"/>
<path d="M125.212 9.87901C128.124 9.45835 130.868 9.33608 133.508 11.321C133.508 8.16955 133.508 5.21832 133.508 2.12809C136.152 2.12809 138.614 2.12809 141.177 2.12809C141.177 11.7797 141.177 21.479 141.177 31.3213C138.94 31.3213 136.638 31.3213 134.207 31.3213C134.157 30.8659 134.099 30.3461 134.042 29.831C130.094 32.5106 126.011 32.6365 122.075 30.0788C117.608 27.1762 117.091 22.6056 117.785 17.737C118.319 13.9892 121.295 10.8681 125.212 9.87901ZM129.1 25.6689C133.491 25.9553 134.701 20.86 133.032 17.6831C132.231 16.159 130.188 15.3629 128.539 15.8148C126.313 16.4249 125.197 18.052 125.206 20.6722C125.216 23.4131 126.336 24.9436 129.1 25.6689Z" fill="url(#paint8_linear_1923_1215)"/>
<defs>
<linearGradient id="paint0_linear_1923_1215" x1="0" y1="0" x2="12.8246" y2="61.3177" gradientUnits="userSpaceOnUse">
<stop stop-color="#5BDFE4"/>
<stop offset="1" stop-color="#024CAD"/>
</linearGradient>
<linearGradient id="paint1_linear_1923_1215" x1="0" y1="0" x2="12.8246" y2="61.3177" gradientUnits="userSpaceOnUse">
<stop stop-color="#5BDFE4"/>
<stop offset="1" stop-color="#024CAD"/>
</linearGradient>
<linearGradient id="paint2_linear_1923_1215" x1="0" y1="0" x2="12.8246" y2="61.3177" gradientUnits="userSpaceOnUse">
<stop stop-color="#5BDFE4"/>
<stop offset="1" stop-color="#024CAD"/>
</linearGradient>
<linearGradient id="paint3_linear_1923_1215" x1="0" y1="0" x2="12.8246" y2="61.3177" gradientUnits="userSpaceOnUse">
<stop stop-color="#5BDFE4"/>
<stop offset="1" stop-color="#024CAD"/>
</linearGradient>
<linearGradient id="paint4_linear_1923_1215" x1="0" y1="0" x2="12.8246" y2="61.3177" gradientUnits="userSpaceOnUse">
<stop stop-color="#5BDFE4"/>
<stop offset="1" stop-color="#024CAD"/>
</linearGradient>
<linearGradient id="paint5_linear_1923_1215" x1="0" y1="0" x2="12.8246" y2="61.3177" gradientUnits="userSpaceOnUse">
<stop stop-color="#5BDFE4"/>
<stop offset="1" stop-color="#024CAD"/>
</linearGradient>
<linearGradient id="paint6_linear_1923_1215" x1="0" y1="0" x2="12.8246" y2="61.3177" gradientUnits="userSpaceOnUse">
<stop stop-color="#5BDFE4"/>
<stop offset="1" stop-color="#024CAD"/>
</linearGradient>
<linearGradient id="paint7_linear_1923_1215" x1="0" y1="0" x2="12.8246" y2="61.3177" gradientUnits="userSpaceOnUse">
<stop stop-color="#5BDFE4"/>
<stop offset="1" stop-color="#024CAD"/>
</linearGradient>
<linearGradient id="paint8_linear_1923_1215" x1="0" y1="0" x2="12.8246" y2="61.3177" gradientUnits="userSpaceOnUse">
<stop stop-color="#5BDFE4"/>
<stop offset="1" stop-color="#024CAD"/>
</linearGradient>
</defs>
</svg>
