<svg width="40" height="40" viewBox="0 0 40 40" fill="none" xmlns="http://www.w3.org/2000/svg">
<path d="M18.0777 28.8333C18.6653 29.352 19.4372 29.6667 20.2825 29.6667C21.1279 29.6667 21.8998 29.352 22.4874 28.8333M25.2825 18C25.2825 16.6739 24.7557 15.4021 23.8181 14.4645C22.8804 13.5268 21.6086 13 20.2825 13C18.9564 13 17.6847 13.5268 16.747 14.4645C15.8093 15.4021 15.2825 16.6739 15.2825 18C15.2825 20.5752 14.6329 22.3383 13.9072 23.5045C13.2951 24.4882 12.9891 24.9801 13.0003 25.1173C13.0127 25.2692 13.0449 25.3272 13.1673 25.418C13.2779 25.5 13.7764 25.5 14.7732 25.5H25.7918C26.7887 25.5 27.2871 25.5 27.3977 25.418C27.5201 25.3272 27.5523 25.2692 27.5648 25.1173C27.576 24.9801 27.2699 24.4882 26.6578 23.5045C25.9321 22.3383 25.2825 20.5752 25.2825 18Z" stroke="#D0D5DD" stroke-width="1.5" stroke-linecap="round" stroke-linejoin="round"/>
<circle cx="25" cy="14" r="5" fill="#FF5151" stroke="#1D1D25" stroke-width="2"/>
</svg>
