<svg width="12" height="14" viewBox="0 0 12 14" fill="none" xmlns="http://www.w3.org/2000/svg">
<path fill-rule="evenodd" clip-rule="evenodd" d="M7.50065 0.666667C7.50065 0.622464 7.48309 0.580072 7.45184 0.548816C7.42058 0.51756 7.37819 0.5 7.33398 0.5H2.66732C2.18109 0.5 1.71477 0.693154 1.37096 1.03697C1.02714 1.38079 0.833984 1.8471 0.833984 2.33333V11.6667C0.833984 12.1529 1.02714 12.6192 1.37096 12.963C1.71477 13.3068 2.18109 13.5 2.66732 13.5H9.33398C9.82021 13.5 10.2865 13.3068 10.6303 12.963C10.9742 12.6192 11.1673 12.1529 11.1673 11.6667V5.098C11.1673 5.0538 11.1498 5.0114 11.1185 4.98015C11.0872 4.94889 11.0449 4.93133 11.0007 4.93133H8.00065C7.86804 4.93133 7.74087 4.87865 7.6471 4.78489C7.55333 4.69112 7.50065 4.56394 7.50065 4.43133V0.666667ZM8.00065 7.16667C8.13326 7.16667 8.26044 7.21935 8.3542 7.31311C8.44797 7.40688 8.50065 7.53406 8.50065 7.66667C8.50065 7.79927 8.44797 7.92645 8.3542 8.02022C8.26044 8.11399 8.13326 8.16667 8.00065 8.16667H4.00065C3.86804 8.16667 3.74087 8.11399 3.6471 8.02022C3.55333 7.92645 3.50065 7.79927 3.50065 7.66667C3.50065 7.53406 3.55333 7.40688 3.6471 7.31311C3.74087 7.21935 3.86804 7.16667 4.00065 7.16667H8.00065ZM8.00065 9.83333C8.13326 9.83333 8.26044 9.88601 8.3542 9.97978C8.44797 10.0735 8.50065 10.2007 8.50065 10.3333C8.50065 10.4659 8.44797 10.5931 8.3542 10.6869C8.26044 10.7807 8.13326 10.8333 8.00065 10.8333H4.00065C3.86804 10.8333 3.74087 10.7807 3.6471 10.6869C3.55333 10.5931 3.50065 10.4659 3.50065 10.3333C3.50065 10.2007 3.55333 10.0735 3.6471 9.97978C3.74087 9.88601 3.86804 9.83333 4.00065 9.83333H8.00065Z" fill="white"/>
</svg>
