<svg width="16" height="16" viewBox="0 0 16 16" fill="none" xmlns="http://www.w3.org/2000/svg">
<path d="M1.33398 3.99992C1.33398 2.74259 1.33398 2.11459 1.72465 1.72392C2.11532 1.33325 2.74332 1.33325 4.00065 1.33325C5.25798 1.33325 5.88598 1.33325 6.27665 1.72392C6.66732 2.11459 6.66732 2.74259 6.66732 3.99992V11.9999C6.66732 13.2573 6.66732 13.8853 6.27665 14.2759C5.88598 14.6666 5.25798 14.6666 4.00065 14.6666C2.74332 14.6666 2.11532 14.6666 1.72465 14.2759C1.33398 13.8853 1.33398 13.2573 1.33398 11.9999V3.99992ZM9.33398 3.99992C9.33398 2.74259 9.33398 2.11459 9.72465 1.72392C10.1153 1.33325 10.7433 1.33325 12.0007 1.33325C13.258 1.33325 13.886 1.33325 14.2767 1.72392C14.6673 2.11459 14.6673 2.74259 14.6673 3.99992V11.9999C14.6673 13.2573 14.6673 13.8853 14.2767 14.2759C13.886 14.6666 13.258 14.6666 12.0007 14.6666C10.7433 14.6666 10.1153 14.6666 9.72465 14.2759C9.33398 13.8853 9.33398 13.2573 9.33398 11.9999V3.99992Z" fill="white"/>
</svg>
