<svg width="25" height="25" viewBox="0 0 25 25" fill="none" xmlns="http://www.w3.org/2000/svg">
<path d="M24.832 13.3546C24.8377 14.1688 24.6286 14.9702 24.2258 15.6779C23.8474 16.3694 23.2863 16.9437 22.6037 17.338C22.627 17.5342 22.6369 17.7318 22.6333 17.9294C22.6454 18.5262 22.5397 19.1196 22.3222 19.6755C22.1048 20.2315 21.7799 20.7391 21.366 21.1693C20.9791 21.5974 20.5055 21.9384 19.9768 22.1696C19.4481 22.4008 18.8763 22.517 18.2993 22.5105C17.7752 22.5123 17.2558 22.4118 16.7701 22.2148C16.4071 22.97 15.8466 23.6129 15.148 24.0756C14.466 24.548 13.6543 24.7974 12.8247 24.7895C11.9972 24.798 11.1868 24.5542 10.5014 24.0904C9.80232 23.6255 9.24534 22.9764 8.89202 22.2148C8.40728 22.4124 7.88844 22.5129 7.36497 22.5105C6.78589 22.5163 6.2121 22.3998 5.6811 22.1687C5.1501 21.9376 4.67383 21.5971 4.28343 21.1693C3.86494 20.7416 3.53584 20.2348 3.31536 19.6786C3.09488 19.1223 2.98743 18.5276 2.99928 17.9294C3.00496 17.7314 3.02189 17.534 3.04997 17.338C2.36995 16.9439 1.80996 16.3722 1.42999 15.6842C1.02496 14.9499 0.818368 14.1226 0.830591 13.2841C0.842813 12.4455 1.07343 11.6247 1.49969 10.9024C1.92006 10.1855 2.5463 9.61149 3.29708 9.25501C3.10329 8.74121 3.00314 8.19684 3.00139 7.64771C2.98942 7.04943 3.09682 6.45476 3.31731 5.89846C3.5378 5.34216 3.86695 4.83539 4.28554 4.40776C4.67661 3.98086 5.153 3.64088 5.68385 3.40984C6.2147 3.1788 6.78816 3.06185 7.36709 3.06658C7.89127 3.06378 8.41088 3.16426 8.89624 3.36227C9.25651 2.60666 9.8149 1.96287 10.512 1.4994C11.1958 1.03687 12.0024 0.789673 12.8279 0.789673C13.6534 0.789673 14.46 1.03687 15.1438 1.4994C15.8416 1.96301 16.4018 2.6057 16.7659 3.36016C17.2516 3.1634 17.7711 3.06366 18.2951 3.06658C18.8721 3.06007 19.4439 3.17628 19.9726 3.4075C20.5013 3.63872 20.9749 3.97967 21.3618 4.40776C21.776 4.83773 22.1012 5.3453 22.3187 5.90131C22.5361 6.45732 22.6416 7.05081 22.6291 7.64771C22.6353 8.19512 22.5445 8.7393 22.3608 9.25501C23.1108 9.61083 23.7364 10.1841 24.1561 10.9003C24.6024 11.6409 24.8362 12.49 24.832 13.3546ZM12.3157 16.9451L17.2707 9.53592C17.3938 9.34924 17.4378 9.12139 17.3932 8.90229C17.3742 8.79331 17.3321 8.68965 17.2699 8.59823C17.2076 8.5068 17.1265 8.42973 17.032 8.37215C16.8447 8.25055 16.619 8.20241 16.3984 8.23698C16.2857 8.25295 16.1774 8.29195 16.0804 8.35154C15.9834 8.41113 15.8997 8.49004 15.8345 8.58336L11.4624 15.1456L9.45595 13.1391C9.37816 13.0547 9.28285 12.9882 9.17668 12.9444C9.07051 12.9006 8.95606 12.8806 8.84133 12.8857C8.61246 12.8927 8.39397 12.9828 8.22671 13.1391C8.14606 13.2174 8.08233 13.3114 8.03946 13.4153C7.99659 13.5192 7.9755 13.6308 7.97748 13.7432C7.97544 13.8547 7.99548 13.9654 8.03645 14.0691C8.07741 14.1728 8.13848 14.2673 8.21615 14.3473L10.9788 17.1099L11.1139 17.2176C11.256 17.3159 11.4248 17.3682 11.5976 17.3676C11.7444 17.3734 11.8897 17.3366 12.016 17.2617C12.1423 17.1867 12.2442 17.0768 12.3094 16.9451H12.3157Z" fill="url(#paint0_linear_1392_5893)"/>
<path d="M11.0509 17.5376C11.2235 17.6548 11.4274 17.7174 11.636 17.7172V17.7256C11.8113 17.7313 11.9847 17.6879 12.1367 17.6002C12.2886 17.5125 12.4129 17.384 12.4956 17.2293L17.4442 9.81793C17.592 9.59079 17.6443 9.31459 17.59 9.04913C17.5673 8.91624 17.5163 8.78977 17.4405 8.67827C17.3647 8.56678 17.2659 8.47285 17.1507 8.40283C16.9251 8.25302 16.6507 8.19555 16.384 8.24231C16.2472 8.26162 16.1159 8.30914 15.9985 8.38185C15.8811 8.45457 15.78 8.5509 15.7018 8.66473L11.4565 15.0475L9.59992 13.1952C9.50906 13.0992 9.39973 13.0226 9.2785 12.97C9.15727 12.9173 9.02664 12.8898 8.89448 12.8889H8.85224C8.58219 12.9006 8.32522 13.0084 8.12779 13.1931C8.03198 13.2886 7.95669 13.4027 7.90657 13.5283C7.85645 13.654 7.83254 13.7886 7.83633 13.9238C7.83376 14.0589 7.85823 14.1932 7.90828 14.3187C7.95833 14.4442 8.03297 14.5584 8.12779 14.6546L10.9052 17.4215L11.0509 17.5376Z" fill="white"/>
<defs>
<linearGradient id="paint0_linear_1392_5893" x1="2.64882" y1="19.3917" x2="22.1052" y2="5.86717" gradientUnits="userSpaceOnUse">
<stop stop-color="#9F7C00"/>
<stop offset="1" stop-color="#FFD543"/>
</linearGradient>
</defs>
</svg>
